<svg width="16" height="17" viewBox="0 0 16 17" fill="none" xmlns="http://www.w3.org/2000/svg">
<g clip-path="url(#clip0_826_1724)">
<path d="M11.9998 5.83335H11.3332V4.50002C11.3332 2.66002 9.83984 1.16669 7.99984 1.16669C6.15984 1.16669 4.6665 2.66002 4.6665 4.50002V5.83335H3.99984C3.26317 5.83335 2.6665 6.43002 2.6665 7.16669V13.8334C2.6665 14.57 3.26317 15.1667 3.99984 15.1667H11.9998C12.7365 15.1667 13.3332 14.57 13.3332 13.8334V7.16669C13.3332 6.43002 12.7365 5.83335 11.9998 5.83335ZM7.99984 11.8334C7.26317 11.8334 6.6665 11.2367 6.6665 10.5C6.6665 9.76335 7.26317 9.16669 7.99984 9.16669C8.7365 9.16669 9.33317 9.76335 9.33317 10.5C9.33317 11.2367 8.7365 11.8334 7.99984 11.8334ZM10.0665 5.83335H5.93317V4.50002C5.93317 3.36002 6.85984 2.43335 7.99984 2.43335C9.13984 2.43335 10.0665 3.36002 10.0665 4.50002V5.83335Z" fill="#1565C0"/>
</g>
<defs>
<clipPath id="clip0_826_1724">
<rect width="16" height="16" fill="white" transform="translate(0 0.5)"/>
</clipPath>
</defs>
</svg>
