<svg width="15" height="16" viewBox="0 0 15 16" fill="none" xmlns="http://www.w3.org/2000/svg">
<path d="M6.30486 4.05708L9.95208 7.70429C10.0737 7.82587 10.1344 7.94744 10.1344 8.1298C10.1344 8.31216 10.0737 8.43374 9.95208 8.55531L6.30486 12.2025C6.06171 12.4457 5.69699 12.4457 5.45385 12.2025C5.2107 11.9594 5.2107 11.5947 5.45385 11.3515L8.67555 8.1298L5.45384 4.9081C5.2107 4.66495 5.2107 4.30023 5.45384 4.05708C5.69699 3.81393 6.06171 3.81393 6.30486 4.05708Z" fill="#7791C2"/>
<mask id="mask0_826_452" style="mask-type:luminance" maskUnits="userSpaceOnUse" x="5" y="3" width="6" height="10">
<path d="M6.30486 4.05708L9.95208 7.70429C10.0737 7.82587 10.1344 7.94744 10.1344 8.1298C10.1344 8.31216 10.0737 8.43374 9.95208 8.55531L6.30486 12.2025C6.06171 12.4457 5.69699 12.4457 5.45385 12.2025C5.2107 11.9594 5.2107 11.5947 5.45385 11.3515L8.67555 8.1298L5.45384 4.9081C5.2107 4.66495 5.2107 4.30023 5.45384 4.05708C5.69699 3.81393 6.06171 3.81393 6.30486 4.05708Z" fill="white"/>
</mask>
<g mask="url(#mask0_826_452)">
</g>
</svg>
