<svg width="15" height="16" viewBox="0 0 15 16" fill="none" xmlns="http://www.w3.org/2000/svg">
<path d="M8.69392 12.2026L5.0467 8.55535C4.92513 8.43377 4.86434 8.3122 4.86434 8.12984C4.86434 7.94748 4.92513 7.82591 5.0467 7.70433L8.69392 4.05712C8.93707 3.81397 9.30179 3.81397 9.54493 4.05712C9.78808 4.30026 9.78808 4.66499 9.54493 4.90813L6.32323 8.12984L9.54493 11.3515C9.78808 11.5947 9.78808 11.9594 9.54493 12.2026C9.30179 12.4457 8.93706 12.4457 8.69392 12.2026Z" fill="#7791C2"/>
<mask id="mask0_826_463" style="mask-type:luminance" maskUnits="userSpaceOnUse" x="4" y="3" width="6" height="10">
<path d="M8.69392 12.2026L5.0467 8.55535C4.92513 8.43377 4.86434 8.3122 4.86434 8.12984C4.86434 7.94748 4.92513 7.82591 5.0467 7.70433L8.69392 4.05712C8.93707 3.81397 9.30179 3.81397 9.54493 4.05712C9.78808 4.30026 9.78808 4.66499 9.54493 4.90813L6.32323 8.12984L9.54493 11.3515C9.78808 11.5947 9.78808 11.9594 9.54493 12.2026C9.30179 12.4457 8.93706 12.4457 8.69392 12.2026Z" fill="white"/>
</mask>
<g mask="url(#mask0_826_463)">
</g>
</svg>
