<svg width="205" height="45" viewBox="0 0 205 45" fill="none" xmlns="http://www.w3.org/2000/svg">
<g clip-path="url(#clip0_1900_359)">
<path d="M18.9713 0C8.54494 0 0 8.56021 0 19.0052C0 23.7958 1.72467 28.1152 4.62524 31.4921C5.33079 31.2565 6.11472 31.0995 6.89866 31.0995C10.5048 31.0995 13.4054 33.8482 13.7973 37.3037C15.4436 37.7749 17.1683 38.0105 18.9713 38.0105C29.4761 38.0105 37.9426 29.4503 37.9426 19.0052C38.021 8.56021 29.4761 0 18.9713 0ZM18.9713 29.1361C13.4054 29.1361 8.9369 24.6597 8.9369 19.0838C8.9369 13.5079 13.4054 9.03141 18.9713 9.03141C24.5373 9.03141 29.0057 13.5079 29.0057 19.0838C29.0057 24.5812 24.5373 29.1361 18.9713 29.1361Z" fill="#1565C0"/>
<path d="M4.62524 31.4922C1.95985 32.4346 0 35.0262 0 38.089C0 41.9372 3.13576 45 6.89866 45C10.74 45 13.7973 41.8587 13.7973 38.089C13.7973 37.8534 13.7973 37.6178 13.7973 37.3822C10.1912 36.3613 7.05545 34.2409 4.62524 31.4922Z" fill="#1565C0"/>
<path d="M60.2848 29.3717V37.4607H53.6997V8.40308H66.1643C72.7494 8.40308 76.5123 13.0366 76.5123 18.691C76.5123 24.6596 72.4358 29.3717 65.6156 29.3717H60.2848ZM60.2848 14.4502V23.4031H65.4588C68.281 23.4031 69.9272 21.5968 69.9272 18.9266C69.9272 16.2565 68.281 14.5287 65.2236 14.5287H60.2848V14.4502Z" fill="white"/>
<path d="M79.8833 37.5392V15.7067H85.7628V18.691C87.2523 16.7277 89.369 15.3926 92.1128 15.3926V21.3612C87.7227 21.3612 85.8412 23.7957 85.8412 27.5654V37.5392H79.8833Z" fill="white"/>
<path d="M116.807 26.7015C116.807 32.9842 111.789 38.0104 105.126 38.0104C98.4625 38.0104 93.4453 33.0628 93.4453 26.7015C93.4453 20.3403 98.4625 15.3141 105.126 15.3141C111.789 15.3141 116.807 20.3403 116.807 26.7015ZM99.2465 26.7015C99.2465 30.157 101.677 32.7486 104.969 32.7486C108.262 32.7486 110.927 30.157 110.927 26.7015C110.927 23.1675 108.419 20.6544 105.048 20.6544C101.677 20.6544 99.2465 23.1675 99.2465 26.7015Z" fill="white"/>
<path d="M125.508 17.9057C126.606 16.6492 128.801 15.3141 131.858 15.3141C136.954 15.3141 140.246 18.8481 140.246 24.1099V37.4607H134.367V25.1308C134.367 22.5392 132.956 20.7329 130.369 20.7329C127.468 20.7329 125.587 22.5392 125.587 25.602V37.4607H119.707V15.7068H125.508V17.9057Z" fill="white"/>
<path d="M156.161 36.7538C154.122 42.5653 151.535 44.9999 146.126 44.9999H144.01V39.6596H145.813C147.772 39.6596 149.027 38.5601 149.811 36.8324L141.736 15.6282H148.478L152.946 29.0575L157.336 15.6282H163.451L156.161 36.7538Z" fill="white"/>
<path d="M163.138 37.5392V31.4136H169.252V37.5392H163.138Z" fill="white"/>
<path d="M172.702 13.8219V8.40308H178.581V13.8219H172.702ZM172.702 37.5392V15.7067H178.581V37.4607H172.702V37.5392Z" fill="white"/>
<path d="M205 26.7015C205 32.9842 199.983 38.0104 193.319 38.0104C186.656 38.0104 181.638 33.0628 181.638 26.7015C181.638 20.3403 186.656 15.3141 193.319 15.3141C199.983 15.3141 205 20.3403 205 26.7015ZM187.44 26.7015C187.44 30.157 189.87 32.7486 193.162 32.7486C196.455 32.7486 199.12 30.157 199.12 26.7015C199.12 23.1675 196.612 20.6544 193.241 20.6544C189.87 20.6544 187.44 23.1675 187.44 26.7015Z" fill="white"/>
</g>
<defs>
<clipPath id="clip0_1900_359">
<rect width="205" height="45" fill="white"/>
</clipPath>
</defs>
</svg>
