<svg width="16" height="16" viewBox="0 0 16 16" fill="none" xmlns="http://www.w3.org/2000/svg">
<path fill-rule="evenodd" clip-rule="evenodd" d="M8 0C3.58172 0 0 3.58172 0 8C0 12.4183 3.58172 16 8 16C12.4183 16 16 12.4183 16 8C16 3.58172 12.4183 0 8 0ZM6.24109 3.75909C6.6962 3.73838 6.84163 3.73331 8.0004 3.73331H7.99906C9.15819 3.73331 9.30308 3.73838 9.75819 3.75909C10.2124 3.77989 10.5226 3.8518 10.7946 3.95731C11.0755 4.06621 11.3129 4.21198 11.5502 4.44932C11.7875 4.68648 11.9333 4.92453 12.0427 5.20515C12.1475 5.47644 12.2196 5.78649 12.2409 6.24072C12.2613 6.69583 12.2667 6.84126 12.2667 8.00002C12.2667 9.15879 12.2613 9.30386 12.2409 9.75898C12.2196 10.213 12.1475 10.5232 12.0427 10.7945C11.9333 11.0751 11.7875 11.3131 11.5502 11.5503C11.3131 11.7876 11.0754 11.9338 10.7949 12.0427C10.5234 12.1482 10.213 12.2202 9.75881 12.241C9.3037 12.2617 9.15872 12.2667 7.99986 12.2667C6.84118 12.2667 6.69585 12.2617 6.24073 12.241C5.78659 12.2202 5.47646 12.1482 5.20499 12.0427C4.92454 11.9338 4.68649 11.7876 4.44943 11.5503C4.21218 11.3131 4.0664 11.0751 3.95733 10.7945C3.85191 10.5232 3.78 10.2131 3.75911 9.75889C3.73848 9.30377 3.73333 9.15879 3.73333 8.00002C3.73333 6.84126 3.73866 6.69574 3.75902 6.24063C3.77946 5.78658 3.85146 5.47644 3.95724 5.20506C4.06658 4.92453 4.21236 4.68648 4.44969 4.44932C4.68685 4.21207 4.9249 4.06629 5.20552 3.95731C5.47681 3.8518 5.78686 3.77989 6.24109 3.75909Z" fill="white" fill-opacity="0.5"/>
<path fill-rule="evenodd" clip-rule="evenodd" d="M7.61774 4.50229C7.69206 4.50217 7.77201 4.50221 7.85829 4.50225L8.0005 4.50229C9.13971 4.50229 9.27473 4.50638 9.72461 4.52682C10.1406 4.54584 10.3664 4.61536 10.5168 4.67376C10.7159 4.75109 10.8579 4.84354 11.0071 4.99287C11.1564 5.14221 11.2489 5.28443 11.3264 5.48354C11.3848 5.63377 11.4544 5.85955 11.4733 6.27555C11.4938 6.72533 11.4982 6.86045 11.4982 7.99912C11.4982 9.1378 11.4938 9.27292 11.4733 9.7227C11.4543 10.1387 11.3848 10.3645 11.3264 10.5147C11.2491 10.7138 11.1564 10.8556 11.0071 11.0048C10.8578 11.1542 10.716 11.2466 10.5168 11.324C10.3666 11.3826 10.1406 11.452 9.72461 11.471C9.27482 11.4914 9.13971 11.4959 8.0005 11.4959C6.8612 11.4959 6.72617 11.4914 6.27639 11.471C5.86039 11.4518 5.63461 11.3823 5.48412 11.3239C5.285 11.2465 5.14278 11.1541 4.99345 11.0048C4.84411 10.8554 4.75167 10.7136 4.67415 10.5144C4.61575 10.3641 4.54615 10.1383 4.52722 9.72234C4.50677 9.27256 4.50269 9.13745 4.50269 7.99806C4.50269 6.85867 4.50677 6.72427 4.52722 6.27448C4.54624 5.85848 4.61575 5.6327 4.67415 5.4823C4.75149 5.28318 4.84411 5.14096 4.99345 4.99163C5.14278 4.84229 5.285 4.74985 5.48412 4.67233C5.63452 4.61367 5.86039 4.54433 6.27639 4.52522C6.67 4.50744 6.82253 4.50211 7.61774 4.50122V4.50229ZM10.278 5.21075C9.99536 5.21075 9.76603 5.43982 9.76603 5.72258C9.76603 6.00525 9.99536 6.23458 10.278 6.23458C10.5607 6.23458 10.79 6.00525 10.79 5.72258C10.79 5.43991 10.5607 5.21057 10.278 5.21057V5.21075ZM5.80936 8.00012C5.80936 6.79009 6.79039 5.80903 8.00041 5.80899C9.21047 5.80899 10.1913 6.79006 10.1913 8.00012C10.1913 9.21018 9.21056 10.1908 8.0005 10.1908C6.79044 10.1908 5.80936 9.21018 5.80936 8.00012Z" fill="white" fill-opacity="0.5"/>
<path d="M8.00036 6.57776C8.78579 6.57776 9.4226 7.21448 9.4226 8C9.4226 8.78543 8.78579 9.42223 8.00036 9.42223C7.21484 9.42223 6.57812 8.78543 6.57812 8C6.57812 7.21448 7.21484 6.57776 8.00036 6.57776Z" fill="white" fill-opacity="0.5"/>
</svg>
