<svg width="15" height="14" viewBox="0 0 15 14" fill="none" xmlns="http://www.w3.org/2000/svg">
<g clip-path="url(#clip0_826_1013)">
<path d="M1.08331 12.25H3.41665V5.25H1.08331V12.25ZM13.9166 5.83333C13.9166 5.18875 13.3946 4.66666 12.75 4.66666H9.06623L9.62331 2.00083C9.63498 1.94249 9.64373 1.88125 9.64373 1.81708C9.64373 1.57499 9.54456 1.35625 9.38706 1.19875L8.76581 0.583328L4.92456 4.42458C4.71456 4.6375 4.58331 4.92916 4.58331 5.25V11.0833C4.58331 11.7279 5.1054 12.25 5.74998 12.25H11C11.4841 12.25 11.8983 11.9554 12.0733 11.5383L13.8321 7.42583C13.8846 7.29166 13.9166 7.14875 13.9166 7V5.88291L13.9108 5.87708L13.9166 5.83333Z" fill="#CDDAF2"/>
</g>
<defs>
<clipPath id="clip0_826_1013">
<rect width="14" height="14" fill="white" transform="translate(0.5)"/>
</clipPath>
</defs>
</svg>
