<svg width="21" height="20" viewBox="0 0 21 20" fill="none" xmlns="http://www.w3.org/2000/svg">
<g clip-path="url(#clip0_826_1622)">
<path d="M1.3335 17.5H4.66683V7.5H1.3335V17.5ZM19.6668 8.33334C19.6668 7.4125 18.921 6.66667 18.0002 6.66667H12.7377L13.5335 2.85834C13.5502 2.775 13.5627 2.6875 13.5627 2.59584C13.5627 2.25 13.421 1.9375 13.196 1.7125L12.3085 0.833336L6.821 6.32084C6.521 6.625 6.3335 7.04167 6.3335 7.5V15.8333C6.3335 16.7542 7.07933 17.5 8.00016 17.5H15.5002C16.1918 17.5 16.7835 17.0792 17.0335 16.4833L19.546 10.6083C19.621 10.4167 19.6668 10.2125 19.6668 10V8.40417L19.6585 8.39584L19.6668 8.33334Z" fill="#1565C0"/>
</g>
<defs>
<clipPath id="clip0_826_1622">
<rect width="20" height="20" fill="white" transform="translate(0.5)"/>
</clipPath>
</defs>
</svg>
