<svg width="93" height="27" viewBox="0 0 93 27" fill="none" xmlns="http://www.w3.org/2000/svg">
<rect width="93" height="27" rx="13.5" fill="#03B8FD"/>
<path d="M26.759 12.084C26.759 12.78 26.519 13.36 26.039 13.824C25.567 14.28 24.843 14.508 23.867 14.508H22.259V18H21.167V9.636H23.867C24.811 9.636 25.527 9.864 26.015 10.32C26.511 10.776 26.759 11.364 26.759 12.084ZM23.867 13.608C24.475 13.608 24.923 13.476 25.211 13.212C25.499 12.948 25.643 12.572 25.643 12.084C25.643 11.052 25.051 10.536 23.867 10.536H22.259V13.608H23.867ZM29.8082 9.12V18H28.7162V9.12H29.8082ZM31.8613 14.688C31.8613 14.016 31.9973 13.428 32.2693 12.924C32.5413 12.412 32.9133 12.016 33.3853 11.736C33.8653 11.456 34.3973 11.316 34.9813 11.316C35.5573 11.316 36.0573 11.44 36.4813 11.688C36.9053 11.936 37.2213 12.248 37.4293 12.624V11.424H38.5333V18H37.4293V16.776C37.2133 17.16 36.8893 17.48 36.4573 17.736C36.0333 17.984 35.5373 18.108 34.9693 18.108C34.3853 18.108 33.8573 17.964 33.3853 17.676C32.9133 17.388 32.5413 16.984 32.2693 16.464C31.9973 15.944 31.8613 15.352 31.8613 14.688ZM37.4293 14.7C37.4293 14.204 37.3293 13.772 37.1293 13.404C36.9293 13.036 36.6573 12.756 36.3133 12.564C35.9773 12.364 35.6053 12.264 35.1973 12.264C34.7893 12.264 34.4173 12.36 34.0813 12.552C33.7453 12.744 33.4773 13.024 33.2773 13.392C33.0773 13.76 32.9773 14.192 32.9773 14.688C32.9773 15.192 33.0773 15.632 33.2773 16.008C33.4773 16.376 33.7453 16.66 34.0813 16.86C34.4173 17.052 34.7893 17.148 35.1973 17.148C35.6053 17.148 35.9773 17.052 36.3133 16.86C36.6573 16.66 36.9293 16.376 37.1293 16.008C37.3293 15.632 37.4293 15.196 37.4293 14.7ZM44.1827 11.304C44.9827 11.304 45.6307 11.548 46.1267 12.036C46.6227 12.516 46.8707 13.212 46.8707 14.124V18H45.7907V14.28C45.7907 13.624 45.6267 13.124 45.2987 12.78C44.9707 12.428 44.5227 12.252 43.9547 12.252C43.3787 12.252 42.9187 12.432 42.5747 12.792C42.2387 13.152 42.0707 13.676 42.0707 14.364V18H40.9787V11.424H42.0707V12.36C42.2867 12.024 42.5787 11.764 42.9467 11.58C43.3227 11.396 43.7347 11.304 44.1827 11.304ZM52.4585 11.304C53.2585 11.304 53.9065 11.548 54.4025 12.036C54.8985 12.516 55.1465 13.212 55.1465 14.124V18H54.0665V14.28C54.0665 13.624 53.9025 13.124 53.5745 12.78C53.2465 12.428 52.7985 12.252 52.2305 12.252C51.6545 12.252 51.1945 12.432 50.8505 12.792C50.5145 13.152 50.3465 13.676 50.3465 14.364V18H49.2545V11.424H50.3465V12.36C50.5625 12.024 50.8545 11.764 51.2225 11.58C51.5985 11.396 52.0105 11.304 52.4585 11.304ZM63.5303 14.46C63.5303 14.668 63.5183 14.888 63.4943 15.12H58.2383C58.2783 15.768 58.4983 16.276 58.8983 16.644C59.3063 17.004 59.7983 17.184 60.3743 17.184C60.8463 17.184 61.2383 17.076 61.5503 16.86C61.8703 16.636 62.0943 16.34 62.2223 15.972H63.3983C63.2223 16.604 62.8703 17.12 62.3423 17.52C61.8143 17.912 61.1583 18.108 60.3743 18.108C59.7503 18.108 59.1903 17.968 58.6943 17.688C58.2063 17.408 57.8223 17.012 57.5423 16.5C57.2623 15.98 57.1223 15.38 57.1223 14.7C57.1223 14.02 57.2583 13.424 57.5303 12.912C57.8023 12.4 58.1823 12.008 58.6703 11.736C59.1663 11.456 59.7343 11.316 60.3743 11.316C60.9983 11.316 61.5503 11.452 62.0303 11.724C62.5103 11.996 62.8783 12.372 63.1343 12.852C63.3983 13.324 63.5303 13.86 63.5303 14.46ZM62.4023 14.232C62.4023 13.816 62.3103 13.46 62.1263 13.164C61.9423 12.86 61.6903 12.632 61.3703 12.48C61.0583 12.32 60.7103 12.24 60.3263 12.24C59.7743 12.24 59.3023 12.416 58.9103 12.768C58.5263 13.12 58.3063 13.608 58.2503 14.232H62.4023ZM65.1637 14.688C65.1637 14.016 65.2997 13.428 65.5717 12.924C65.8437 12.412 66.2157 12.016 66.6877 11.736C67.1677 11.456 67.7037 11.316 68.2957 11.316C68.8077 11.316 69.2837 11.436 69.7237 11.676C70.1637 11.908 70.4997 12.216 70.7317 12.6V9.12H71.8357V18H70.7317V16.764C70.5157 17.156 70.1957 17.48 69.7717 17.736C69.3477 17.984 68.8517 18.108 68.2837 18.108C67.6997 18.108 67.1677 17.964 66.6877 17.676C66.2157 17.388 65.8437 16.984 65.5717 16.464C65.2997 15.944 65.1637 15.352 65.1637 14.688ZM70.7317 14.7C70.7317 14.204 70.6317 13.772 70.4317 13.404C70.2317 13.036 69.9597 12.756 69.6157 12.564C69.2797 12.364 68.9077 12.264 68.4997 12.264C68.0917 12.264 67.7197 12.36 67.3837 12.552C67.0477 12.744 66.7797 13.024 66.5797 13.392C66.3797 13.76 66.2797 14.192 66.2797 14.688C66.2797 15.192 66.3797 15.632 66.5797 16.008C66.7797 16.376 67.0477 16.66 67.3837 16.86C67.7197 17.052 68.0917 17.148 68.4997 17.148C68.9077 17.148 69.2797 17.052 69.6157 16.86C69.9597 16.66 70.2317 16.376 70.4317 16.008C70.6317 15.632 70.7317 15.196 70.7317 14.7Z" fill="#F8FAFF"/>
</svg>
