<svg width="113" height="27" viewBox="0 0 113 27" fill="none" xmlns="http://www.w3.org/2000/svg">
<rect width="113" height="27" rx="13.5" fill="#F43658"/>
<path d="M22.1879 9.636V18H21.0959V9.636H22.1879ZM27.853 11.304C28.653 11.304 29.301 11.548 29.797 12.036C30.293 12.516 30.541 13.212 30.541 14.124V18H29.461V14.28C29.461 13.624 29.297 13.124 28.969 12.78C28.641 12.428 28.193 12.252 27.625 12.252C27.049 12.252 26.589 12.432 26.245 12.792C25.909 13.152 25.741 13.676 25.741 14.364V18H24.649V11.424H25.741V12.36C25.957 12.024 26.249 11.764 26.617 11.58C26.993 11.396 27.405 11.304 27.853 11.304ZM37.816 12.636C38.032 12.26 38.352 11.948 38.776 11.7C39.208 11.444 39.708 11.316 40.276 11.316C40.86 11.316 41.388 11.456 41.86 11.736C42.34 12.016 42.716 12.412 42.988 12.924C43.26 13.428 43.396 14.016 43.396 14.688C43.396 15.352 43.26 15.944 42.988 16.464C42.716 16.984 42.34 17.388 41.86 17.676C41.388 17.964 40.86 18.108 40.276 18.108C39.716 18.108 39.22 17.984 38.788 17.736C38.364 17.48 38.04 17.164 37.816 16.788V21.12H36.724V11.424H37.816V12.636ZM42.28 14.688C42.28 14.192 42.18 13.76 41.98 13.392C41.78 13.024 41.508 12.744 41.164 12.552C40.828 12.36 40.456 12.264 40.048 12.264C39.648 12.264 39.276 12.364 38.932 12.564C38.596 12.756 38.324 13.04 38.116 13.416C37.916 13.784 37.816 14.212 37.816 14.7C37.816 15.196 37.916 15.632 38.116 16.008C38.324 16.376 38.596 16.66 38.932 16.86C39.276 17.052 39.648 17.148 40.048 17.148C40.456 17.148 40.828 17.052 41.164 16.86C41.508 16.66 41.78 16.376 41.98 16.008C42.18 15.632 42.28 15.192 42.28 14.688ZM46.5254 12.492C46.7174 12.116 46.9894 11.824 47.3414 11.616C47.7014 11.408 48.1374 11.304 48.6494 11.304V12.432H48.3614C47.1374 12.432 46.5254 13.096 46.5254 14.424V18H45.4334V11.424H46.5254V12.492ZM53.3779 18.108C52.7619 18.108 52.2019 17.968 51.6979 17.688C51.2019 17.408 50.8099 17.012 50.5219 16.5C50.2419 15.98 50.1019 15.38 50.1019 14.7C50.1019 14.028 50.2459 13.436 50.5339 12.924C50.8299 12.404 51.2299 12.008 51.7339 11.736C52.2379 11.456 52.8019 11.316 53.4259 11.316C54.0499 11.316 54.6139 11.456 55.1179 11.736C55.6219 12.008 56.0179 12.4 56.3059 12.912C56.6019 13.424 56.7499 14.02 56.7499 14.7C56.7499 15.38 56.5979 15.98 56.2939 16.5C55.9979 17.012 55.5939 17.408 55.0819 17.688C54.5699 17.968 54.0019 18.108 53.3779 18.108ZM53.3779 17.148C53.7699 17.148 54.1379 17.056 54.4819 16.872C54.8259 16.688 55.1019 16.412 55.3099 16.044C55.5259 15.676 55.6339 15.228 55.6339 14.7C55.6339 14.172 55.5299 13.724 55.3219 13.356C55.1139 12.988 54.8419 12.716 54.5059 12.54C54.1699 12.356 53.8059 12.264 53.4139 12.264C53.0139 12.264 52.6459 12.356 52.3099 12.54C51.9819 12.716 51.7179 12.988 51.5179 13.356C51.3179 13.724 51.2179 14.172 51.2179 14.7C51.2179 15.236 51.3139 15.688 51.5059 16.056C51.7059 16.424 51.9699 16.7 52.2979 16.884C52.6259 17.06 52.9859 17.148 53.3779 17.148ZM61.4977 11.316C62.0657 11.316 62.5617 11.44 62.9857 11.688C63.4177 11.936 63.7377 12.248 63.9457 12.624V11.424H65.0497V18.144C65.0497 18.744 64.9217 19.276 64.6657 19.74C64.4097 20.212 64.0417 20.58 63.5617 20.844C63.0897 21.108 62.5377 21.24 61.9057 21.24C61.0417 21.24 60.3217 21.036 59.7457 20.628C59.1697 20.22 58.8297 19.664 58.7257 18.96H59.8057C59.9257 19.36 60.1737 19.68 60.5497 19.92C60.9257 20.168 61.3777 20.292 61.9057 20.292C62.5057 20.292 62.9937 20.104 63.3697 19.728C63.7537 19.352 63.9457 18.824 63.9457 18.144V16.764C63.7297 17.148 63.4097 17.468 62.9857 17.724C62.5617 17.98 62.0657 18.108 61.4977 18.108C60.9137 18.108 60.3817 17.964 59.9017 17.676C59.4297 17.388 59.0577 16.984 58.7857 16.464C58.5137 15.944 58.3777 15.352 58.3777 14.688C58.3777 14.016 58.5137 13.428 58.7857 12.924C59.0577 12.412 59.4297 12.016 59.9017 11.736C60.3817 11.456 60.9137 11.316 61.4977 11.316ZM63.9457 14.7C63.9457 14.204 63.8457 13.772 63.6457 13.404C63.4457 13.036 63.1737 12.756 62.8297 12.564C62.4937 12.364 62.1217 12.264 61.7137 12.264C61.3057 12.264 60.9337 12.36 60.5977 12.552C60.2617 12.744 59.9937 13.024 59.7937 13.392C59.5937 13.76 59.4937 14.192 59.4937 14.688C59.4937 15.192 59.5937 15.632 59.7937 16.008C59.9937 16.376 60.2617 16.66 60.5977 16.86C60.9337 17.052 61.3057 17.148 61.7137 17.148C62.1217 17.148 62.4937 17.052 62.8297 16.86C63.1737 16.66 63.4457 16.376 63.6457 16.008C63.8457 15.632 63.9457 15.196 63.9457 14.7ZM68.5871 12.492C68.7791 12.116 69.0511 11.824 69.4031 11.616C69.7631 11.408 70.1991 11.304 70.7111 11.304V12.432H70.4231C69.1991 12.432 68.5871 13.096 68.5871 14.424V18H67.4951V11.424H68.5871V12.492ZM78.5717 14.46C78.5717 14.668 78.5597 14.888 78.5357 15.12H73.2797C73.3197 15.768 73.5397 16.276 73.9397 16.644C74.3477 17.004 74.8397 17.184 75.4157 17.184C75.8877 17.184 76.2797 17.076 76.5917 16.86C76.9117 16.636 77.1357 16.34 77.2637 15.972H78.4397C78.2637 16.604 77.9117 17.12 77.3837 17.52C76.8557 17.912 76.1997 18.108 75.4157 18.108C74.7917 18.108 74.2317 17.968 73.7357 17.688C73.2477 17.408 72.8637 17.012 72.5837 16.5C72.3037 15.98 72.1637 15.38 72.1637 14.7C72.1637 14.02 72.2997 13.424 72.5717 12.912C72.8437 12.4 73.2237 12.008 73.7117 11.736C74.2077 11.456 74.7757 11.316 75.4157 11.316C76.0397 11.316 76.5917 11.452 77.0717 11.724C77.5517 11.996 77.9197 12.372 78.1757 12.852C78.4397 13.324 78.5717 13.86 78.5717 14.46ZM77.4437 14.232C77.4437 13.816 77.3517 13.46 77.1677 13.164C76.9837 12.86 76.7317 12.632 76.4117 12.48C76.0997 12.32 75.7517 12.24 75.3677 12.24C74.8157 12.24 74.3437 12.416 73.9517 12.768C73.5677 13.12 73.3477 13.608 73.2917 14.232H77.4437ZM82.9411 18.108C82.4371 18.108 81.9851 18.024 81.5851 17.856C81.1851 17.68 80.8691 17.44 80.6371 17.136C80.4051 16.824 80.2771 16.468 80.2531 16.068H81.3811C81.4131 16.396 81.5651 16.664 81.8371 16.872C82.1171 17.08 82.4811 17.184 82.9291 17.184C83.3451 17.184 83.6731 17.092 83.9131 16.908C84.1531 16.724 84.2731 16.492 84.2731 16.212C84.2731 15.924 84.1451 15.712 83.8891 15.576C83.6331 15.432 83.2371 15.292 82.7011 15.156C82.2131 15.028 81.8131 14.9 81.5011 14.772C81.1971 14.636 80.9331 14.44 80.7091 14.184C80.4931 13.92 80.3851 13.576 80.3851 13.152C80.3851 12.816 80.4851 12.508 80.6851 12.228C80.8851 11.948 81.1691 11.728 81.5371 11.568C81.9051 11.4 82.3251 11.316 82.7971 11.316C83.5251 11.316 84.1131 11.5 84.5611 11.868C85.0091 12.236 85.2491 12.74 85.2811 13.38H84.1891C84.1651 13.036 84.0251 12.76 83.7691 12.552C83.5211 12.344 83.1851 12.24 82.7611 12.24C82.3691 12.24 82.0571 12.324 81.8251 12.492C81.5931 12.66 81.4771 12.88 81.4771 13.152C81.4771 13.368 81.5451 13.548 81.6811 13.692C81.8251 13.828 82.0011 13.94 82.2091 14.028C82.4251 14.108 82.7211 14.2 83.0971 14.304C83.5691 14.432 83.9531 14.56 84.2491 14.688C84.5451 14.808 84.7971 14.992 85.0051 15.24C85.2211 15.488 85.3331 15.812 85.3411 16.212C85.3411 16.572 85.2411 16.896 85.0411 17.184C84.8411 17.472 84.5571 17.7 84.1891 17.868C83.8291 18.028 83.4131 18.108 82.9411 18.108ZM89.8106 18.108C89.3066 18.108 88.8546 18.024 88.4546 17.856C88.0546 17.68 87.7386 17.44 87.5066 17.136C87.2746 16.824 87.1466 16.468 87.1226 16.068H88.2506C88.2826 16.396 88.4346 16.664 88.7066 16.872C88.9866 17.08 89.3506 17.184 89.7986 17.184C90.2146 17.184 90.5426 17.092 90.7826 16.908C91.0226 16.724 91.1426 16.492 91.1426 16.212C91.1426 15.924 91.0146 15.712 90.7586 15.576C90.5026 15.432 90.1066 15.292 89.5706 15.156C89.0826 15.028 88.6826 14.9 88.3706 14.772C88.0666 14.636 87.8026 14.44 87.5786 14.184C87.3626 13.92 87.2546 13.576 87.2546 13.152C87.2546 12.816 87.3546 12.508 87.5546 12.228C87.7546 11.948 88.0386 11.728 88.4066 11.568C88.7746 11.4 89.1946 11.316 89.6666 11.316C90.3946 11.316 90.9826 11.5 91.4306 11.868C91.8786 12.236 92.1186 12.74 92.1506 13.38H91.0586C91.0346 13.036 90.8946 12.76 90.6386 12.552C90.3906 12.344 90.0546 12.24 89.6306 12.24C89.2386 12.24 88.9266 12.324 88.6946 12.492C88.4626 12.66 88.3466 12.88 88.3466 13.152C88.3466 13.368 88.4146 13.548 88.5506 13.692C88.6946 13.828 88.8706 13.94 89.0786 14.028C89.2946 14.108 89.5906 14.2 89.9666 14.304C90.4386 14.432 90.8226 14.56 91.1186 14.688C91.4146 14.808 91.6666 14.992 91.8746 15.24C92.0906 15.488 92.2026 15.812 92.2106 16.212C92.2106 16.572 92.1106 16.896 91.9106 17.184C91.7106 17.472 91.4266 17.7 91.0586 17.868C90.6986 18.028 90.2826 18.108 89.8106 18.108Z" fill="white"/>
</svg>
