<svg width="140" height="27" viewBox="0 0 140 27" fill="none" xmlns="http://www.w3.org/2000/svg">
<rect width="140" height="27" rx="13.5" fill="#9E9E9E"/>
<path d="M20.7629 13.812C20.7629 12.996 20.9469 12.264 21.3149 11.616C21.6829 10.96 22.1829 10.448 22.8149 10.08C23.4549 9.712 24.1629 9.528 24.9389 9.528C25.8509 9.528 26.6469 9.748 27.3269 10.188C28.0069 10.628 28.5029 11.252 28.8149 12.06H27.5069C27.2749 11.556 26.9389 11.168 26.4989 10.896C26.0669 10.624 25.5469 10.488 24.9389 10.488C24.3549 10.488 23.8309 10.624 23.3669 10.896C22.9029 11.168 22.5389 11.556 22.2749 12.06C22.0109 12.556 21.8789 13.14 21.8789 13.812C21.8789 14.476 22.0109 15.06 22.2749 15.564C22.5389 16.06 22.9029 16.444 23.3669 16.716C23.8309 16.988 24.3549 17.124 24.9389 17.124C25.5469 17.124 26.0669 16.992 26.4989 16.728C26.9389 16.456 27.2749 16.068 27.5069 15.564H28.8149C28.5029 16.364 28.0069 16.984 27.3269 17.424C26.6469 17.856 25.8509 18.072 24.9389 18.072C24.1629 18.072 23.4549 17.892 22.8149 17.532C22.1829 17.164 21.6829 16.656 21.3149 16.008C20.9469 15.36 20.7629 14.628 20.7629 13.812ZM33.9084 18.108C33.2924 18.108 32.7324 17.968 32.2284 17.688C31.7324 17.408 31.3404 17.012 31.0524 16.5C30.7724 15.98 30.6324 15.38 30.6324 14.7C30.6324 14.028 30.7764 13.436 31.0644 12.924C31.3604 12.404 31.7604 12.008 32.2644 11.736C32.7684 11.456 33.3324 11.316 33.9564 11.316C34.5804 11.316 35.1444 11.456 35.6484 11.736C36.1524 12.008 36.5484 12.4 36.8364 12.912C37.1324 13.424 37.2804 14.02 37.2804 14.7C37.2804 15.38 37.1284 15.98 36.8244 16.5C36.5284 17.012 36.1244 17.408 35.6124 17.688C35.1004 17.968 34.5324 18.108 33.9084 18.108ZM33.9084 17.148C34.3004 17.148 34.6684 17.056 35.0124 16.872C35.3564 16.688 35.6324 16.412 35.8404 16.044C36.0564 15.676 36.1644 15.228 36.1644 14.7C36.1644 14.172 36.0604 13.724 35.8524 13.356C35.6444 12.988 35.3724 12.716 35.0364 12.54C34.7004 12.356 34.3364 12.264 33.9444 12.264C33.5444 12.264 33.1764 12.356 32.8404 12.54C32.5124 12.716 32.2484 12.988 32.0484 13.356C31.8484 13.724 31.7484 14.172 31.7484 14.7C31.7484 15.236 31.8444 15.688 32.0364 16.056C32.2364 16.424 32.5004 16.7 32.8284 16.884C33.1564 17.06 33.5164 17.148 33.9084 17.148ZM47.2242 11.304C47.7362 11.304 48.1922 11.412 48.5922 11.628C48.9922 11.836 49.3082 12.152 49.5402 12.576C49.7722 13 49.8882 13.516 49.8882 14.124V18H48.8082V14.28C48.8082 13.624 48.6442 13.124 48.3162 12.78C47.9962 12.428 47.5602 12.252 47.0082 12.252C46.4402 12.252 45.9882 12.436 45.6522 12.804C45.3162 13.164 45.1482 13.688 45.1482 14.376V18H44.0682V14.28C44.0682 13.624 43.9042 13.124 43.5762 12.78C43.2562 12.428 42.8202 12.252 42.2682 12.252C41.7002 12.252 41.2482 12.436 40.9122 12.804C40.5762 13.164 40.4082 13.688 40.4082 14.376V18H39.3162V11.424H40.4082V12.372C40.6242 12.028 40.9122 11.764 41.2722 11.58C41.6402 11.396 42.0442 11.304 42.4842 11.304C43.0362 11.304 43.5242 11.428 43.9482 11.676C44.3722 11.924 44.6882 12.288 44.8962 12.768C45.0802 12.304 45.3842 11.944 45.8082 11.688C46.2322 11.432 46.7042 11.304 47.2242 11.304ZM60.1875 11.304C60.6995 11.304 61.1555 11.412 61.5555 11.628C61.9555 11.836 62.2715 12.152 62.5035 12.576C62.7355 13 62.8515 13.516 62.8515 14.124V18H61.7715V14.28C61.7715 13.624 61.6075 13.124 61.2795 12.78C60.9595 12.428 60.5235 12.252 59.9715 12.252C59.4035 12.252 58.9515 12.436 58.6155 12.804C58.2795 13.164 58.1115 13.688 58.1115 14.376V18H57.0315V14.28C57.0315 13.624 56.8675 13.124 56.5395 12.78C56.2195 12.428 55.7835 12.252 55.2315 12.252C54.6635 12.252 54.2115 12.436 53.8755 12.804C53.5395 13.164 53.3715 13.688 53.3715 14.376V18H52.2795V11.424H53.3715V12.372C53.5875 12.028 53.8755 11.764 54.2355 11.58C54.6035 11.396 55.0075 11.304 55.4475 11.304C55.9995 11.304 56.4875 11.428 56.9115 11.676C57.3355 11.924 57.6515 12.288 57.8595 12.768C58.0435 12.304 58.3475 11.944 58.7715 11.688C59.1955 11.432 59.6675 11.304 60.1875 11.304ZM65.8068 10.356C65.5988 10.356 65.4228 10.284 65.2788 10.14C65.1348 9.996 65.0628 9.82 65.0628 9.612C65.0628 9.404 65.1348 9.228 65.2788 9.084C65.4228 8.94 65.5988 8.868 65.8068 8.868C66.0068 8.868 66.1748 8.94 66.3108 9.084C66.4548 9.228 66.5268 9.404 66.5268 9.612C66.5268 9.82 66.4548 9.996 66.3108 10.14C66.1748 10.284 66.0068 10.356 65.8068 10.356ZM66.3348 11.424V18H65.2428V11.424H66.3348ZM71.9999 11.304C72.7999 11.304 73.4479 11.548 73.9439 12.036C74.4399 12.516 74.6879 13.212 74.6879 14.124V18H73.6079V14.28C73.6079 13.624 73.4439 13.124 73.1159 12.78C72.7879 12.428 72.3399 12.252 71.7719 12.252C71.1959 12.252 70.7359 12.432 70.3919 12.792C70.0559 13.152 69.8879 13.676 69.8879 14.364V18H68.7959V11.424H69.8879V12.36C70.1039 12.024 70.3959 11.764 70.7639 11.58C71.1399 11.396 71.5519 11.304 71.9999 11.304ZM79.7837 11.316C80.3517 11.316 80.8477 11.44 81.2717 11.688C81.7037 11.936 82.0237 12.248 82.2317 12.624V11.424H83.3357V18.144C83.3357 18.744 83.2077 19.276 82.9517 19.74C82.6957 20.212 82.3277 20.58 81.8477 20.844C81.3757 21.108 80.8237 21.24 80.1917 21.24C79.3277 21.24 78.6077 21.036 78.0317 20.628C77.4557 20.22 77.1157 19.664 77.0117 18.96H78.0917C78.2117 19.36 78.4597 19.68 78.8357 19.92C79.2117 20.168 79.6637 20.292 80.1917 20.292C80.7917 20.292 81.2797 20.104 81.6557 19.728C82.0397 19.352 82.2317 18.824 82.2317 18.144V16.764C82.0157 17.148 81.6957 17.468 81.2717 17.724C80.8477 17.98 80.3517 18.108 79.7837 18.108C79.1997 18.108 78.6677 17.964 78.1877 17.676C77.7157 17.388 77.3437 16.984 77.0717 16.464C76.7997 15.944 76.6637 15.352 76.6637 14.688C76.6637 14.016 76.7997 13.428 77.0717 12.924C77.3437 12.412 77.7157 12.016 78.1877 11.736C78.6677 11.456 79.1997 11.316 79.7837 11.316ZM82.2317 14.7C82.2317 14.204 82.1317 13.772 81.9317 13.404C81.7317 13.036 81.4597 12.756 81.1157 12.564C80.7797 12.364 80.4077 12.264 79.9997 12.264C79.5917 12.264 79.2197 12.36 78.8837 12.552C78.5477 12.744 78.2797 13.024 78.0797 13.392C77.8797 13.76 77.7797 14.192 77.7797 14.688C77.7797 15.192 77.8797 15.632 78.0797 16.008C78.2797 16.376 78.5477 16.66 78.8837 16.86C79.2197 17.052 79.5917 17.148 79.9997 17.148C80.4077 17.148 80.7797 17.052 81.1157 16.86C81.4597 16.66 81.7317 16.376 81.9317 16.008C82.1317 15.632 82.2317 15.196 82.2317 14.7ZM91.9083 18.108C91.4043 18.108 90.9523 18.024 90.5523 17.856C90.1523 17.68 89.8363 17.44 89.6043 17.136C89.3723 16.824 89.2443 16.468 89.2203 16.068H90.3483C90.3803 16.396 90.5323 16.664 90.8043 16.872C91.0843 17.08 91.4483 17.184 91.8963 17.184C92.3123 17.184 92.6403 17.092 92.8803 16.908C93.1203 16.724 93.2403 16.492 93.2403 16.212C93.2403 15.924 93.1123 15.712 92.8563 15.576C92.6003 15.432 92.2043 15.292 91.6683 15.156C91.1803 15.028 90.7803 14.9 90.4683 14.772C90.1643 14.636 89.9003 14.44 89.6763 14.184C89.4603 13.92 89.3523 13.576 89.3523 13.152C89.3523 12.816 89.4523 12.508 89.6523 12.228C89.8523 11.948 90.1363 11.728 90.5043 11.568C90.8723 11.4 91.2923 11.316 91.7643 11.316C92.4923 11.316 93.0803 11.5 93.5283 11.868C93.9763 12.236 94.2163 12.74 94.2483 13.38H93.1563C93.1323 13.036 92.9923 12.76 92.7363 12.552C92.4883 12.344 92.1523 12.24 91.7283 12.24C91.3363 12.24 91.0243 12.324 90.7923 12.492C90.5603 12.66 90.4443 12.88 90.4443 13.152C90.4443 13.368 90.5123 13.548 90.6483 13.692C90.7923 13.828 90.9683 13.94 91.1763 14.028C91.3923 14.108 91.6883 14.2 92.0643 14.304C92.5363 14.432 92.9203 14.56 93.2163 14.688C93.5123 14.808 93.7643 14.992 93.9723 15.24C94.1883 15.488 94.3003 15.812 94.3083 16.212C94.3083 16.572 94.2083 16.896 94.0083 17.184C93.8083 17.472 93.5243 17.7 93.1563 17.868C92.7963 18.028 92.3803 18.108 91.9083 18.108ZM99.3178 18.108C98.7018 18.108 98.1418 17.968 97.6378 17.688C97.1418 17.408 96.7498 17.012 96.4618 16.5C96.1818 15.98 96.0418 15.38 96.0418 14.7C96.0418 14.028 96.1858 13.436 96.4738 12.924C96.7698 12.404 97.1698 12.008 97.6738 11.736C98.1778 11.456 98.7418 11.316 99.3658 11.316C99.9898 11.316 100.554 11.456 101.058 11.736C101.562 12.008 101.958 12.4 102.246 12.912C102.542 13.424 102.69 14.02 102.69 14.7C102.69 15.38 102.538 15.98 102.234 16.5C101.938 17.012 101.534 17.408 101.022 17.688C100.51 17.968 99.9418 18.108 99.3178 18.108ZM99.3178 17.148C99.7098 17.148 100.078 17.056 100.422 16.872C100.766 16.688 101.042 16.412 101.25 16.044C101.466 15.676 101.574 15.228 101.574 14.7C101.574 14.172 101.47 13.724 101.262 13.356C101.054 12.988 100.782 12.716 100.446 12.54C100.11 12.356 99.7458 12.264 99.3538 12.264C98.9538 12.264 98.5858 12.356 98.2498 12.54C97.9218 12.716 97.6578 12.988 97.4578 13.356C97.2578 13.724 97.1578 14.172 97.1578 14.7C97.1578 15.236 97.2538 15.688 97.4458 16.056C97.6458 16.424 97.9098 16.7 98.2378 16.884C98.5658 17.06 98.9258 17.148 99.3178 17.148ZM107.594 18.108C106.978 18.108 106.418 17.968 105.914 17.688C105.418 17.408 105.026 17.012 104.738 16.5C104.458 15.98 104.318 15.38 104.318 14.7C104.318 14.028 104.462 13.436 104.75 12.924C105.046 12.404 105.446 12.008 105.95 11.736C106.454 11.456 107.018 11.316 107.642 11.316C108.266 11.316 108.83 11.456 109.334 11.736C109.838 12.008 110.234 12.4 110.522 12.912C110.818 13.424 110.966 14.02 110.966 14.7C110.966 15.38 110.814 15.98 110.51 16.5C110.214 17.012 109.81 17.408 109.298 17.688C108.786 17.968 108.218 18.108 107.594 18.108ZM107.594 17.148C107.986 17.148 108.354 17.056 108.698 16.872C109.042 16.688 109.318 16.412 109.526 16.044C109.742 15.676 109.85 15.228 109.85 14.7C109.85 14.172 109.746 13.724 109.538 13.356C109.33 12.988 109.058 12.716 108.722 12.54C108.386 12.356 108.022 12.264 107.63 12.264C107.23 12.264 106.862 12.356 106.526 12.54C106.198 12.716 105.934 12.988 105.734 13.356C105.534 13.724 105.434 14.172 105.434 14.7C105.434 15.236 105.53 15.688 105.722 16.056C105.922 16.424 106.186 16.7 106.514 16.884C106.842 17.06 107.202 17.148 107.594 17.148ZM116.205 11.304C117.005 11.304 117.653 11.548 118.149 12.036C118.645 12.516 118.893 13.212 118.893 14.124V18H117.813V14.28C117.813 13.624 117.649 13.124 117.321 12.78C116.993 12.428 116.545 12.252 115.977 12.252C115.401 12.252 114.941 12.432 114.597 12.792C114.261 13.152 114.093 13.676 114.093 14.364V18H113.001V11.424H114.093V12.36C114.309 12.024 114.601 11.764 114.969 11.58C115.345 11.396 115.757 11.304 116.205 11.304Z" fill="white"/>
</svg>
