<svg width="16" height="16" viewBox="0 0 16 16" fill="none" xmlns="http://www.w3.org/2000/svg">
<path d="M9.59943 12.2027L5.95222 8.55547C5.83065 8.4339 5.76986 8.31232 5.76986 8.12996C5.76986 7.9476 5.83065 7.82603 5.95222 7.70445L9.59943 4.05724C9.84258 3.81409 10.2073 3.81409 10.4505 4.05724C10.6936 4.30039 10.6936 4.66511 10.4505 4.90826L7.22875 8.12996L10.4505 11.3517C10.6936 11.5948 10.6936 11.9595 10.4505 12.2027C10.2073 12.4458 9.84258 12.4458 9.59943 12.2027Z" fill="#7791C2"/>
<mask id="mask0_826_436" style="mask-type:luminance" maskUnits="userSpaceOnUse" x="5" y="3" width="6" height="10">
<path d="M9.59943 12.2027L5.95222 8.55547C5.83065 8.4339 5.76986 8.31232 5.76986 8.12996C5.76986 7.9476 5.83065 7.82603 5.95222 7.70445L9.59943 4.05724C9.84258 3.81409 10.2073 3.81409 10.4505 4.05724C10.6936 4.30039 10.6936 4.66511 10.4505 4.90826L7.22875 8.12996L10.4505 11.3517C10.6936 11.5948 10.6936 11.9595 10.4505 12.2027C10.2073 12.4458 9.84258 12.4458 9.59943 12.2027Z" fill="white"/>
</mask>
<g mask="url(#mask0_826_436)">
</g>
</svg>
