<svg width="16" height="16" viewBox="0 0 16 16" fill="none" xmlns="http://www.w3.org/2000/svg">
<path d="M6.39934 4.0572L10.0466 7.70442C10.1681 7.82599 10.2289 7.94756 10.2289 8.12993C10.2289 8.31229 10.1681 8.43386 10.0466 8.55543L6.39934 12.2026C6.1562 12.4458 5.79148 12.4458 5.54833 12.2026C5.30518 11.9595 5.30518 11.5948 5.54833 11.3516L8.77003 8.12993L5.54833 4.90822C5.30518 4.66507 5.30518 4.30035 5.54833 4.0572C5.79147 3.81405 6.1562 3.81405 6.39934 4.0572Z" fill="#7791C2"/>
<mask id="mask0_826_441" style="mask-type:luminance" maskUnits="userSpaceOnUse" x="5" y="3" width="6" height="10">
<path d="M6.39934 4.0572L10.0466 7.70442C10.1681 7.82599 10.2289 7.94756 10.2289 8.12993C10.2289 8.31229 10.1681 8.43386 10.0466 8.55543L6.39934 12.2026C6.1562 12.4458 5.79148 12.4458 5.54833 12.2026C5.30518 11.9595 5.30518 11.5948 5.54833 11.3516L8.77003 8.12993L5.54833 4.90822C5.30518 4.66507 5.30518 4.30035 5.54833 4.0572C5.79147 3.81405 6.1562 3.81405 6.39934 4.0572Z" fill="white"/>
</mask>
<g mask="url(#mask0_826_441)">
</g>
</svg>
